/* XPM */
static const char * logotipo_xpm[] = {
"32 32 257 2",
"  	c None",
". 	c #000000",
"+ 	c #080808",
"@ 	c #100808",
"# 	c #101010",
"$ 	c #180808",
"% 	c #181010",
"& 	c #181818",
"* 	c #210000",
"= 	c #290000",
"- 	c #310000",
"; 	c #210808",
"> 	c #290808",
", 	c #211010",
"' 	c #291010",
") 	c #310808",
"! 	c #2D1414",
"~ 	c #3B1212",
"{ 	c #50080C",
"] 	c #630000",
"^ 	c #5E0814",
"/ 	c #6B0000",
"( 	c #730808",
"_ 	c #6B0810",
": 	c #670E18",
"< 	c #840000",
"[ 	c #840808",
"} 	c #730810",
"| 	c #731010",
"1 	c #730818",
"2 	c #731018",
"3 	c #7B0810",
"4 	c #7F0C10",
"5 	c #312121",
"6 	c #52193A",
"7 	c #5A132D",
"8 	c #5A1E48",
"9 	c #292929",
"0 	c #313131",
"a 	c #3F3939",
"b 	c #4E3F3F",
"c 	c #70131F",
"d 	c #84151E",
"e 	c #71202C",
"f 	c #6B2F4A",
"g 	c #5A5A5A",
"h 	c #636363",
"i 	c #63636B",
"j 	c #7E5052",
"k 	c #67676F",
"l 	c #6B677B",
"m 	c #75707D",
"n 	c #7B7B7B",
"o 	c #716C92",
"p 	c #7E7A90",
"q 	c #848484",
"r 	c #848490",
"s 	c #6F6BA9",
"t 	c #7373A5",
"u 	c #7373AD",
"v 	c #7B73A9",
"w 	c #817BA2",
"x 	c #84849C",
"y 	c #7D79B1",
"z 	c #8484A5",
"A 	c #8C0808",
"B 	c #8C1010",
"C 	c #8C1018",
"D 	c #981018",
"E 	c #8C1818",
"F 	c #901025",
"G 	c #921A1E",
"H 	c #902529",
"I 	c #A51018",
"J 	c #A51818",
"K 	c #A0161E",
"L 	c #A31D26",
"M 	c #B51018",
"N 	c #B51021",
"O 	c #BD1021",
"P 	c #B62025",
"Q 	c #942D2F",
"R 	c #A52D35",
"S 	c #993D41",
"T 	c #A54242",
"U 	c #B5302F",
"V 	c #C13030",
"W 	c #AD4146",
"X 	c #C2403E",
"Y 	c #A94E50",
"Z 	c #BA4F52",
"` 	c #A56568",
" .	c #BA5F62",
"..	c #C35257",
"+.	c #BD6363",
"@.	c #C26669",
"#.	c #C17375",
"$.	c #8C8494",
"%.	c #8C849C",
"&.	c #8C8C8C",
"*.	c #928C94",
"=.	c #948C9C",
"-.	c #949494",
";.	c #94949C",
">.	c #9C9C9C",
",.	c #8C88A5",
"'.	c #948CA5",
").	c #9494A5",
"!.	c #8986B3",
"~.	c #9894A9",
"{.	c #9C94AD",
"].	c #A59C9C",
"^.	c #9F9CAA",
"/.	c #B19094",
"(.	c #C08386",
"_.	c #A5A5A5",
":.	c #B5A5A5",
"<.	c #BDA5A5",
"[.	c #A5A5AD",
"}.	c #ADADAD",
"|.	c #BDADAD",
"1.	c #ADADB5",
"2.	c #B5ADB5",
"3.	c #B5B5B5",
"4.	c #BDB5B5",
"5.	c #B5B5BD",
"6.	c #BDBDB5",
"7.	c #BDBDBD",
"8.	c #BDBDC6",
"9.	c #CE4235",
"0.	c #CE4B3E",
"a.	c #CE4F4C",
"b.	c #D25A4A",
"c.	c #D05754",
"d.	c #D45E5C",
"e.	c #D26762",
"f.	c #D66F63",
"g.	c #D6636B",
"h.	c #CE6B6B",
"i.	c #CE6B73",
"j.	c #D6736B",
"k.	c #CE7377",
"l.	c #CE7B7B",
"m.	c #D6737B",
"n.	c #DA7B77",
"o.	c #DE7B7B",
"p.	c #DE847B",
"q.	c #D68484",
"r.	c #DE8484",
"s.	c #C68C8C",
"t.	c #CE9496",
"u.	c #DA888C",
"v.	c #D69699",
"w.	c #DE8C84",
"x.	c #DE8C8C",
"y.	c #DE8C94",
"z.	c #DE9494",
"A.	c #DE949C",
"B.	c #DE9C9C",
"C.	c #E7948C",
"D.	c #E79494",
"E.	c #D69CA5",
"F.	c #CEA5A5",
"G.	c #D6A5A5",
"H.	c #CEB1B1",
"I.	c #D6ADAD",
"J.	c #DEA5A5",
"K.	c #DEB5B5",
"L.	c #E79C9C",
"M.	c #CEBDBD",
"N.	c #C6C6BD",
"O.	c #CEC6BD",
"P.	c #C6C6C6",
"Q.	c #CEC6C6",
"R.	c #D6C6C6",
"S.	c #CECEC6",
"T.	c #D6CEC6",
"U.	c #E79CA5",
"V.	c #E7A59C",
"W.	c #EBA0A0",
"X.	c #EFA5A5",
"Y.	c #E7A5AD",
"Z.	c #E7ADA5",
"`.	c #E7ADAD",
" +	c #EFADAD",
".+	c #E9B2B2",
"++	c #F7ADAD",
"@+	c #E9B7BA",
"#+	c #F7B5B5",
"$+	c #EFC0BA",
"%+	c #F7BDBD",
"&+	c #FFB5B5",
"*+	c #FFBDBD",
"=+	c #C6C6CE",
"-+	c #CECECE",
";+	c #D6CECE",
">+	c #D6D6C6",
",+	c #D6D6CE",
"'+	c #D6D6D6",
")+	c #DECECE",
"!+	c #DED6C6",
"~+	c #DED6CE",
"{+	c #DEDEC6",
"]+	c #DEDECE",
"^+	c #DEDED6",
"/+	c #DEDEDE",
"(+	c #E7CECE",
"_+	c #E7CED6",
":+	c #E7D6D6",
"<+	c #EFC8CB",
"[+	c #E9DBD3",
"}+	c #EFDEDE",
"|+	c #E7E7CE",
"1+	c #EFE7CE",
"2+	c #E7E7D6",
"3+	c #EFE7D6",
"4+	c #E7E7DE",
"5+	c #EFE7DE",
"6+	c #E7E7E7",
"7+	c #EFE7E7",
"8+	c #EFE7EF",
"9+	c #EFEFCE",
"0+	c #EFEFD6",
"a+	c #EFEFDE",
"b+	c #EFEFE7",
"c+	c #EFEFEF",
"d+	c #F7C6C6",
"e+	c #F7CECE",
"f+	c #F7D6CE",
"g+	c #F7D6D6",
"h+	c #F7DEDE",
"i+	c #F7E7DE",
"j+	c #F7E7E7",
"k+	c #F7EFD6",
"l+	c #F7EFDE",
"m+	c #F7EFE7",
"n+	c #F7EFEF",
"o+	c #F7F7DE",
"p+	c #F7F7E7",
"q+	c #F7F7EF",
"r+	c #F7F7F7",
"s+	c #FFC6C6",
"t+	c #FFCECE",
"u+	c #FFD6D6",
"v+	c #FFDEDE",
"w+	c #FFE7E7",
"x+	c #FFEFE7",
"y+	c #FFEFEF",
"z+	c #FFEFF7",
"A+	c #FFF7DE",
"B+	c #FFF7E7",
"C+	c #FFF7EF",
"D+	c #FFF7F7",
"E+	c #FFFFE7",
"F+	c #FFFFEF",
"G+	c #FFFFF7",
"H+	c #FFFFFF",
"H+H+H+H+H+H+H+H+G L U W H+H+H+H+H+H+H+H+H+H+H+H+H+H+H+H+H+H+H+H+",
"H+H+H+H+H+H+H+d K O V a.0.H+H+H+H+H+H+H+H+H+H+H+H+H+H+H+H+H+H+H+",
"H+H+H+H+H+H+: C P V w.f+n.U H+H+H+H+H+H+H+H+H+H+H+H+H+H+H+H+H+H+",
"H+H+H+H+H+H+c d N V n.V.f.L H+H+H+H+H+H+H+H+H+H+H+H+H+H+H+H+H+H+",
"H+H+H+H+H+H+8 2 C K N R D 4 H+H+H+H+H+H+H+H+H+H+H+H+H+H+H+H+H+H+",
"H+H+H+H+H+H+H+8 : 4 d 4 2 H+H+H+H+H+H+H+H+H+H+H+H+H+H+H+H+H+H+H+",
"H+H+H+H+H+H+H+H+P 8 7 i.H+H+H+H+H+H+H+H+H+H+H+H+H+H+H+H+H+H+H+H+",
"H+H+H+H+H+H+-+-+-+-+-+-+-+H+H+H+H+H+H+H+H+H+H+H+H+H+H+H+H+H+H+H+",
"H+H+H+H+H+H+. . . . . . . . H+H+H+H+H+H+H+H+H+H+H+H+H+H+H+H+H+H+",
"H+H+H+H+H+H+. 9 d+d+%+x.@.W H+H+H+H+H+H+H+H+H+H+H+H+H+H+H+H+H+H+",
"H+H+H+H+H+H+. k *+ +q.Z G < H+H+H+H+H+H+H+H+H+H+H+H+H+H+H+H+H+H+",
"H+H+H+H+H+_.. `.L.+.R < G Z H+H+H+H+H+H+H+H+H+H+H+H+H+H+H+H+H+H+",
"H+H+H+H+H+a . W.+.Q < R +.z.H+H+H+H+H+H+H+H+H+H+H+H+H+H+H+H+H+H+",
"H+H+H+H+H+. .  .G [ T l. +s+H+H+H+H+H+H+H+H+H+H+H+H+H+H+H+H+H+H+",
"H+H+H+H+H+. . R [ T l.%+*+s+6+H+H+H+H+H+H+H+H+H+H+H+H+H+H+H+H+H+",
"H+H+H+H+H+. . < R l. +s+d+d+q H+H+H+H+H+H+H+H+H+H+H+H+H+H+H+H+H+",
"H+H+H+H+H+. . B +.L.*+s+d+e+9 H+H+H+H+H+H+H+H+H+H+H+H+H+H+H+H+H+",
"H+H+H+H+H+. . R q.s+d+d+d+e+0 H+H+H+H+H+H+H+H+H+H+H+H+H+H+h H+H+",
"H+H+H+H+H+. . Z J.*+d+d+'+>.}.3.P.P.S.>+6+H+H+H+H+H+H+H+H+H+0 H+",
"H+H+H+H+H+. . +.%+s+w+&._.3.P.'+/+6+c+b+a+|+H+H+H+H+H+H+H+H+H+H+",
"H+H+H+H+H+. . k.%+/+q >.3.P./+6+r+G+F+D+F+p+0+H+H+H+H+H+H+H+& k ",
"H+H+H+H+H+. . k.D+p *.}.7.'+c+H+F+F+F+F+F+E+A+k+H+H+H+H+H+k '+H+",
"H+H+c+H+7.. + k.k p ;.3.P./+r+G+F+F+C+F+F+C+E+E+4+H+H+H+-./+H+H+",
"H+h H+H+0 . % @.s x ).3.-+6+H+G+F+F+C+H+C+F+B+E+3+H+c+H+H+H+H+H+",
"H+H+H+H+. . ) #.s w ).3.-+6+H+D+F+B+F+F+C+F+F+E+1+H+H+H+H+H+H+H+",
"-.H+H+H+. . { W s w ).3.P./+r+G+C+C+E+C+C+F+F+q+|+H+H+H+H+H+H+H+",
"& H+H+H+. . E E l t z [.7.-+6+r+H+G+>.-+G+D+H+b+>+H+H+H+H+H+H+H+",
"H+g H+H+g . W < g u w ).}.P.i n r+G+H+H+H+r+6+^+c+H+H+H+H+H+H+H+",
"H+H+H+H+H+. h.Q [ h u z ~.}.7.h '+/+6+6+/+'+-+N.H+H+H+H+H+H+H+H+",
"H+H+H+H+H+6+q k h >.!.t z ).}.3.7.P.-+P.P.7.3.H+H+H+H+H+H+H+H+H+",
"H+H+H+H+H+H+H+H+H+H+H+h s w %.-.>._._._._.7.H+H+H+H+H+H+H+H+H+H+",
"H+H+H+H+H+H+H+H+H+H+H+H+H+&.m p q &.&.3.H+H+H+H+H+H+H+H+H+H+H+H+"};
